<svg xmlns="http://www.w3.org/2000/svg" width="485" height="104" fill="none" viewBox="0 0 485 104">
    <g clip-path="url(#clip0)">
        <path fill="#fff" d="M22.567 104.003C9.49 104.003 0 95.706 0 84.275c-.01-4.748 1.105-9.432 3.256-13.667 4.325 1.764 8.769 3.597 13.626 5.604-1.201 2.579-1.874 5.37-1.98 8.212-.092 2.198.617 4.355 1.997 6.07.776.85 1.732 1.517 2.799 1.952 1.066.435 2.217.628 3.367.564.416 0 .849-.023 1.29-.065 8.933-.87 16.61-10.545 21.611-27.247l5.624-19.146-.826.07c-3.242.282-7.072.616-10.922.96l3.21-11.01c4.696-.415 8.232-.72 11.47-.991l.383-.031.113-.364c1.957-6.471 4.802-12.64 8.455-18.331l.433-.66-.764-.199c-3.971-1.128-8.072-1.735-12.2-1.806-.999 0-2.003.042-2.982.13-12.944 1.129-21.639 9.316-21.639 20.377.033 2.807.624 5.58 1.738 8.156 1.115 2.577 2.73 4.908 4.754 6.858-3.315 3.794-6.404 7.34-9.442 10.838-3.614-2.717-6.54-6.242-8.542-10.292-2.003-4.05-3.026-8.512-2.988-13.027.039-8.59 3.365-16.839 9.298-23.06S35.164 4.226 43.757 3.764c1.194-.105 2.407-.158 3.607-.158 7.767.287 15.416 2.001 22.561 5.056l.323.121.254-.228C76.158 3.475 83.39.485 90.987.085c.818-.056 1.627-.082 2.4-.082 8.932 0 14.264 3.64 14.264 9.737 0 5.395-4.314 11.448-16.406 12.253-.829.056-1.663.085-2.48.085-4.032-.061-8.038-.65-11.915-1.75l-.405-.105-.22.355c-2.441 4.081-4.414 8.423-5.881 12.945l-.283.813.848-.065c4.331-.33 8.667-.65 12.89-.946l-3.21 10.951c-4.29.313-8.769.647-13.312 1l-.387.03-6.478 21.564c-6.899 22.978-18.556 35.419-34.651 36.984-1.058.096-2.133.149-3.194.149zm72.76-97.024c-.221 0-.459 0-.73.026-4.336.47-8.4 2.34-11.575 5.324l-.818.714 1.053.263c2.804.754 5.69 1.162 8.593 1.214.518 0 1.03-.017 1.516-.048 5.163-.342 7.004-2.4 7.004-4.215 0-2.021-1.932-3.278-5.043-3.278zm368.359 89.139c-.453 0-.914-.022-1.369-.068-1.421-.056-2.811-.433-4.066-1.102-1.255-.668-2.341-1.612-3.178-2.76-1.117-2.073-1.766-4.366-1.901-6.716-.135-2.35.247-4.701 1.12-6.889l.297-.912v-.047c.823-2.541 1.675-5.161 2.52-7.745.423-.937.639-1.955.631-2.984-.007-1.029-.237-2.043-.673-2.975-.334-.434-.762-.786-1.252-1.03-.49-.245-1.029-.375-1.577-.382-.215-.017-.404-.025-.566-.025-1.452.144-2.855.601-4.113 1.34-1.257.74-2.338 1.744-3.168 2.943l-8.285 26.337c-3.872-.336-8.011-.683-12.65-1.062l1.698-5.364-1.336.884c-4.289 2.84-9.335 4.33-14.482 4.277-.742 0-1.5-.028-2.263-.085-8.885-.655-15.388-4.689-18.313-11.357l-.376-.864-.586.74c-4.715 5.928-9.796 8.946-15.097 8.946-.283 0-.548 0-.82-.022-1.826.045-3.621-.486-5.127-1.517-1.506-1.032-2.648-2.511-3.263-4.228l-.283-.802-.628.564c-3.173 3.04-7.383 4.766-11.781 4.83-.255 0-.515 0-.77-.019-3.286.001-6.463-1.181-8.946-3.33-2.483-2.15-4.106-5.121-4.569-8.37l-.15-.776-.684.393c-3.168 1.731-6.725 2.628-10.336 2.606h-.238l-.164.169c-2.245 2.41-4.963 4.33-7.985 5.645-3.021 1.314-6.282 1.993-9.578 1.995h-.756c-4.043.11-8.01-1.107-11.291-3.468-3.281-2.36-5.694-5.732-6.866-9.595l-.3-1.062-.687.864c-10.183 12.809-23.376 19.579-38.136 19.579h-.176c-21.478-.074-35.339-14.602-35.339-36.998 0-24.547 17.224-51.04 45.053-51.04h.325c18.63.164 27.113 11.806 27.113 22.552 0 6.843-3.79 13.774-11.032 13.774h-.178c-2.365-.053-4.616-1.029-6.269-2.717-1.654-1.689-2.58-3.956-2.579-6.317-.02-1.672.45-3.313 1.352-4.721.901-1.409 2.195-2.524 3.723-3.21l.407-.186-.085-.44c-.617-3.202-3.802-6.646-10.927-6.714h-.195c-15.98 0-29.984 17.303-29.984 37.032 0 16.49 9.286 26.786 24.239 26.868h.186c13.264 0 26.14-7.998 34.44-21.394 1.717-4.641 4.797-8.658 8.837-11.526 4.04-2.867 8.852-4.453 13.809-4.55h.764c11.213.36 19.045 8.018 19.045 18.633-.008 2.963-.573 5.897-1.666 8.65l-.478 1.226 1.222-.497c2.216-.928 4.146-2.426 5.592-4.342l.088-.107.025-.139c2.046-10.682 10.042-21.5 21.363-21.5.311 0 .628 0 .942.025 2.114.067 4.178.657 6.008 1.716 1.829 1.06 3.367 2.555 4.475 4.353l.653 1.048 1.779-5.683c4.441.257 8.699.516 12.662.773-3.027 9.715-5.994 19.243-8.82 28.325-.903 2.73-.549 3.834-.261 4.235.152.199.349.358.575.465.226.106.474.157.724.148h.175c3.604 0 7.921-6.528 10.183-10.42l.074-.232c.232-5.702 2.635-11.1 6.718-15.095 4.083-3.994 9.539-6.283 15.255-6.4.591 0 1.197.022 1.802.067 10.466.796 15.23 7.642 15.23 13.67 0 4.28-2.507 8.613-7.293 8.613-.212 0-.43 0-.65-.025-1.888-.174-3.646-1.037-4.936-2.424s-2.022-3.2-2.057-5.092c-.014-1.554.529-3.063 1.531-4.254l.673-.785-1.027-.144c-.15-.02-.354-.048-.566-.062-.172 0-.35-.02-.526-.02-5.57 0-10.845 6.889-10.851 14.173-.123 1.411.05 2.833.51 4.174.46 1.341 1.196 2.571 2.16 3.612.964 1.04 2.136 1.867 3.439 2.429 1.304.562 2.711.845 4.131.832.405.03.812.045 1.216.045 7.225 0 13.974-4.856 18.517-13.326 3.046-9.72 6.396-20.386 10.54-33.561 4.203.375 8.457.767 12.647 1.163l-5.907 18.765 1.389-1.01c2.267-1.76 5.049-2.728 7.921-2.759.413 0 .848.02 1.258.063 1.642.095 3.24.558 4.678 1.354 1.438.796 2.677 1.905 3.627 3.244 1.23 2.117 1.972 4.48 2.173 6.918.201 2.438-.144 4.89-1.01 7.179-1.086 3.458-2.24 7.108-3.629 11.49-.849 2.51-.566 3.715-.198 4.285.144.185.329.334.54.437.21.102.442.156.676.156.096 0 .192.014.283.014 3.185 0 7.618-5.039 12.163-13.833l.088-.17.116.02.113.02c1.902.465 3.62 1.492 4.928 2.947l.181.238-.102.214c-6.065 12.569-13.397 19.192-21.252 19.192zM362.012 56.791c-5.148 0-10.596 7.295-10.596 14.192 0 4.029 2.019 6.539 5.402 6.708h.283c5.228 0 10.749-7.32 10.749-14.24.102-.806.037-1.625-.192-2.405-.229-.78-.616-1.505-1.137-2.13s-1.166-1.135-1.893-1.501c-.728-.365-1.523-.578-2.336-.624h-.28zm-48.223-3.32c-6.074 0-11.598 6.855-11.598 14.382 0 7.385 5.27 8.125 6.885 8.187h.255c1.42-.009 2.819-.346 4.087-.986l.523-.262-.283-.514c-.561-1.04-.853-2.206-.848-3.388-.015-.887.147-1.767.478-2.59.33-.824.822-1.573 1.446-2.204.625-.631 1.369-1.132 2.19-1.472.821-.34 1.701-.513 2.59-.51h.232c.164 0 .342.023.532.049l.545.065.085-.542c.103-.627.158-1.26.164-1.895 0-7.704-5.858-8.26-7.035-8.294h-.248v-.026zM82.416 92.036c-10.26 0-17.15-6.64-17.15-16.522 0-12.14 10.336-26.385 25.175-27.384.594-.037 1.132-.057 1.658-.057 10.353 0 17.309 6.725 17.309 16.736-.023 3.017-.588 6.006-1.666 8.825l-.515 1.361 1.301-.655c2.262-1.174 4.203-2.879 5.657-4.969l.082-.113.02-.138c1.55-11.185 11.315-23.13 24.952-23.757.39-.017.784-.028 1.165-.028 10.659 0 17.821 6.886 17.821 17.13-.014 3.005-.575 5.983-1.657 8.787l-.507 1.332 1.287-.621c2.203-1.102 4.104-2.722 5.539-4.72l.079-.105.026-.13c2.079-11.066 10.576-22.989 22.227-23.285h.422c2.019-.102 4.029.335 5.823 1.267 1.794.932 3.305 2.325 4.38 4.035l.659 1.056 6.554-21.35c4.175-.076 8.432-.138 12.658-.186-3.677 11.993-7.88 25.691-13.608 44.383-.818 2.708-.566 3.843-.187 4.32.157.176.355.312.576.396.221.085.459.115.694.09 1.697-.031 4.693-1.655 9.21-9.22.63 2.48 1.482 4.898 2.546 7.226-5.137 7.259-10.749 11.01-16.718 11.118h-.282c-1.721.166-3.448-.243-4.91-1.163-1.462-.92-2.577-2.298-3.169-3.919l-.3-.821-.628.607c-3.397 3.473-7.973 5.553-12.828 5.83h-.515c-3.057.09-6.039-.949-8.377-2.916-2.338-1.967-3.867-4.725-4.295-7.748l-.167-.813-.699.455c-3.129 1.982-6.698 3.166-10.393 3.447l-.223.02-.147.166c-2.289 2.667-5.094 4.844-8.246 6.401-3.153 1.558-6.589 2.463-10.101 2.662-.402.02-.803.028-1.199.028-3.576.237-7.133-.692-10.135-2.646-3.001-1.955-5.286-4.83-6.509-8.192l-.255-.743-.625.477c-3.324 2.448-7.255 3.94-11.368 4.317l-.215.025-.145.167c-2.276 2.713-5.069 4.947-8.218 6.572-3.148 1.626-6.59 2.61-10.123 2.897-.602.034-1.18.068-1.74.068zm7.638-33.477c-.175 0-.345 0-.512.017-6.056.409-11.779 7.938-11.779 15.49-.109 1.169.056 2.347.481 3.441.426 1.094 1.1 2.075 1.972 2.863 1.143.848 2.536 1.292 3.96 1.262.17 0 .34 0 .51-.017 1.53-.124 3.008-.608 4.316-1.411l.472-.282-.283-.478c-.569-1.004-.861-2.14-.848-3.294.013-1.91.744-3.745 2.047-5.142 1.304-1.397 3.086-2.255 4.993-2.405.115-.01.23-.015.345-.014l.674.017.07-.5c.1-.629.154-1.265.162-1.902 0-7.106-5.027-7.66-6.569-7.66l-.011.015zm48.619-2.776h-.336c-6.062.283-11.796 7.696-11.796 15.245-.113 1.2.061 2.408.506 3.528s1.15 2.117 2.057 2.912c1.166.835 2.568 1.275 4.003 1.257h.345c1.528-.081 3.015-.532 4.33-1.313l.481-.283-.283-.485c-.562-1.017-.848-2.162-.831-3.323.004-1.888.731-3.703 2.033-5.074 1.301-1.37 3.079-2.192 4.968-2.297h.534l.507.017.073-.497c.104-.63.16-1.267.167-1.906-.003-7.233-5.165-7.795-6.746-7.795l-.012.014zm48.195-.42h-.169c-5.211.127-10.93 7.967-10.93 14.98 0 3.952 1.937 6.332 5.182 6.332h.181c5.397-.144 11.094-7.792 11.085-14.878 0-3.97-2.05-6.434-5.349-6.434z"/>
    </g>
    <defs>
        <clipPath id="clip0">
            <path fill="#fff" d="M0 0H485V104H0z"/>
        </clipPath>
    </defs>
</svg>
