<svg xmlns="http://www.w3.org/2000/svg" width="292" height="62" fill="none" viewBox="0 0 292 62">
    <g clip-path="url(#clip0)">
        <path fill="#fff" d="M13.587 62.002C5.714 62.002 0 57.056 0 50.242c-.006-2.832.665-5.624 1.96-8.148 2.604 1.051 5.28 2.144 8.204 3.34-.723 1.538-1.129 3.202-1.192 4.896-.056 1.31.372 2.596 1.202 3.619.467.507 1.043.904 1.685 1.163.642.26 1.335.375 2.028.336.25 0 .51-.013.776-.038 5.378-.519 10-6.286 13.011-16.243l3.386-11.415-.497.042c-1.952.169-4.258.367-6.576.573l1.933-6.564c2.827-.248 4.956-.43 6.906-.591l.23-.019.068-.217c1.178-3.857 2.891-7.535 5.09-10.928l.261-.394-.46-.117c-2.39-.673-4.86-1.035-7.345-1.078-.601 0-1.206.026-1.795.078-7.793.673-13.028 5.554-13.028 12.148.02 1.673.376 3.326 1.046 4.862.671 1.537 1.644 2.926 2.862 4.089-1.996 2.262-3.855 4.375-5.684 6.46-2.176-1.62-3.938-3.72-5.143-6.135-1.206-2.414-1.822-5.074-1.799-7.766.023-5.12 2.026-10.038 5.598-13.747C16.3 4.739 21.171 2.52 26.344 2.244c.72-.062 1.45-.094 2.172-.094 4.677.171 9.281 1.193 13.583 3.014l.194.072.154-.136C45.852 2.071 50.205.29 54.78.051c.492-.034.98-.049 1.444-.049 5.379 0 8.589 2.17 8.589 5.805 0 3.216-2.598 6.825-9.878 7.304-.499.034-1.001.05-1.494.05-2.427-.035-4.838-.386-7.173-1.043l-.243-.062-.133.212c-1.47 2.433-2.657 5.022-3.54 7.717l-.171.485.51-.039c2.608-.197 5.219-.387 7.762-.564l-1.933 6.529c-2.584.186-5.28.385-8.015.595l-.233.019-3.9 12.855C32.218 53.563 25.2 60.981 15.51 61.913c-.637.057-1.284.09-1.923.09zM57.392 4.161c-.132 0-.275 0-.439.015-2.61.28-5.057 1.395-6.969 3.174l-.492.426.634.157c1.688.45 3.425.692 5.174.723.311 0 .62-.01.912-.028 3.108-.204 4.217-1.43 4.217-2.513 0-1.205-1.163-1.954-3.037-1.954zm221.776 53.14c-.273 0-.55-.013-.825-.04-.855-.034-1.692-.258-2.448-.657-.755-.398-1.409-.961-1.913-1.645-.673-1.236-1.063-2.603-1.144-4.004-.082-1.401.149-2.803.674-4.107l.179-.544V46.276c.495-1.515 1.008-3.077 1.517-4.617.255-.559.384-1.166.38-1.779-.004-.613-.143-1.218-.405-1.774-.201-.258-.459-.468-.754-.614-.295-.145-.62-.223-.95-.227-.129-.01-.243-.015-.34-.015-.874.085-1.72.358-2.476.799-.757.44-1.408 1.04-1.908 1.754l-4.988 15.701c-2.331-.2-4.823-.407-7.616-.633l1.022-3.198-.804.527c-2.583 1.693-5.62 2.582-8.72 2.55-.446 0-.902-.017-1.362-.05-5.349-.391-9.264-2.796-11.025-6.771l-.227-.515-.352.44c-2.839 3.535-5.898 5.334-9.09 5.334-.17 0-.33 0-.493-.013-1.1.027-2.18-.29-3.087-.905-.907-.614-1.595-1.497-1.965-2.52l-.17-.478-.378.336c-1.911 1.812-4.445 2.841-7.093 2.88-.154 0-.31 0-.463-.012-1.979.001-3.892-.704-5.387-1.985-1.495-1.282-2.472-3.053-2.751-4.99l-.09-.462-.412.234c-1.907 1.032-4.049 1.566-6.223 1.553h-.143l-.099.101c-1.351 1.436-2.988 2.582-4.807 3.365-1.819.784-3.782 1.189-5.767 1.19h-.455c-2.434.066-4.822-.66-6.798-2.068-1.975-1.407-3.428-3.417-4.133-5.72l-.181-.633-.414.515c-6.131 7.636-14.074 11.672-22.96 11.672h-.106c-12.931-.044-21.276-8.705-21.276-22.056 0-14.634 10.37-30.428 27.124-30.428h.196c11.217.098 16.324 7.039 16.324 13.444 0 4.08-2.282 8.212-6.642 8.212h-.107c-1.424-.032-2.779-.613-3.775-1.62-.995-1.006-1.553-2.358-1.552-3.766-.012-.996.271-1.974.814-2.814.542-.84 1.321-1.505 2.241-1.914l.245-.11-.051-.263c-.371-1.909-2.289-3.962-6.579-4.003h-.117c-9.621 0-18.053 10.316-18.053 22.077 0 9.83 5.592 15.969 14.594 16.018h.112c7.986 0 15.738-4.769 20.735-12.755 1.034-2.767 2.888-5.161 5.321-6.87 2.432-1.71 5.329-2.655 8.313-2.713h.46c6.751.214 11.467 4.78 11.467 11.108-.005 1.766-.346 3.515-1.003 5.157l-.288.73.736-.296c1.334-.553 2.496-1.446 3.366-2.588l.053-.064.016-.083c1.231-6.368 6.045-12.818 12.861-12.818.187 0 .378 0 .567.015 1.273.04 2.516.392 3.617 1.024 1.102.631 2.027 1.523 2.695 2.595l.393.624 1.071-3.388c2.674.154 5.237.308 7.623.462-1.822 5.79-3.609 11.471-5.31 16.886-.543 1.627-.331 2.285-.157 2.524.091.119.21.214.346.277.136.064.285.094.436.088h.105c2.17 0 4.769-3.89 6.131-6.212l.045-.138c.139-3.399 1.586-6.617 4.044-8.998 2.459-2.382 5.743-3.746 9.185-3.816.356 0 .72.013 1.085.04 6.301.475 9.169 4.556 9.169 8.15 0 2.55-1.509 5.134-4.391 5.134-.127 0-.258 0-.391-.015-1.137-.104-2.195-.618-2.972-1.445-.776-.827-1.217-1.907-1.238-3.035-.009-.927.318-1.827.921-2.537l.406-.468-.619-.085c-.09-.012-.213-.029-.34-.037-.104 0-.211-.012-.317-.012-3.353 0-6.53 4.106-6.533 8.449-.074.842.03 1.69.307 2.489.277.799.72 1.532 1.3 2.152.581.62 1.286 1.114 2.071 1.449.785.335 1.632.503 2.487.495.244.02.489.028.732.028 4.35 0 8.413-2.895 11.149-7.944 1.834-5.795 3.85-12.154 6.345-20.009 2.531.224 5.092.458 7.614.694l-3.556 11.187.837-.603c1.364-1.048 3.039-1.626 4.768-1.644.249 0 .511.012.758.037.988.057 1.951.333 2.816.808.866.474 1.612 1.136 2.184 1.934.74 1.261 1.187 2.67 1.308 4.124.121 1.453-.086 2.915-.608 4.28-.654 2.061-1.349 4.237-2.185 6.85-.511 1.496-.341 2.214-.119 2.554.087.11.198.199.325.26.127.062.266.093.407.094.058 0 .116.008.17.008 1.918 0 4.587-3.004 7.324-8.247l.052-.1.07.01.068.013c1.146.277 2.179.89 2.967 1.757l.109.141-.061.128c-3.652 7.493-8.066 11.441-12.795 11.441zm-61.214-23.444c-3.1 0-6.38 4.349-6.38 8.46 0 2.402 1.216 3.898 3.253 4h.17c3.147 0 6.472-4.365 6.472-8.49.061-.48.021-.969-.116-1.434-.138-.465-.371-.897-.685-1.27-.314-.372-.702-.677-1.14-.895-.438-.217-.916-.344-1.406-.371h-.168zm-29.034-1.98c-3.656 0-6.982 4.087-6.982 8.574 0 4.403 3.172 4.844 4.145 4.88h.153c.855-.005 1.698-.206 2.461-.587l.315-.156-.17-.307c-.338-.62-.514-1.314-.511-2.02-.009-.528.089-1.053.288-1.544.199-.49.495-.937.871-1.313.376-.377.824-.675 1.318-.878.494-.203 1.024-.306 1.559-.304h.14c.098 0 .206.014.32.03l.329.038.051-.323c.062-.374.095-.751.098-1.13 0-4.593-3.527-4.924-4.235-4.945h-.15v-.015zm-139.3 22.99c-6.177 0-10.326-3.958-10.326-9.848 0-7.237 6.223-15.73 15.157-16.326.358-.022.682-.034.998-.034 6.233 0 10.421 4.01 10.421 9.977-.014 1.8-.353 3.581-1.003 5.262l-.31.81.784-.39c1.361-.7 2.53-1.716 3.406-2.962l.05-.067.011-.083c.933-6.668 6.812-13.789 15.022-14.162.236-.01.472-.017.702-.017 6.417 0 10.73 4.105 10.73 10.213-.009 1.79-.347 3.566-.999 5.237l-.305.795.775-.37c1.326-.657 2.47-1.623 3.335-2.815l.048-.062.015-.077c1.252-6.598 6.368-13.706 13.382-13.882h.254c1.216-.061 2.426.2 3.506.756 1.08.555 1.99 1.385 2.637 2.405l.397.629 3.946-12.727c2.514-.046 5.077-.083 7.621-.111-2.214 7.15-4.745 15.316-8.193 26.459-.493 1.614-.341 2.29-.113 2.575.095.105.214.186.347.236.133.05.276.069.418.054 1.022-.019 2.825-.987 5.545-5.497.379 1.478.892 2.92 1.533 4.308-3.093 4.327-6.472 6.564-10.065 6.628h-.171c-1.035.099-2.075-.145-2.955-.693-.881-.549-1.552-1.37-1.908-2.336l-.181-.49-.378.362c-2.045 2.07-4.8 3.31-7.723 3.475h-.31c-1.841.054-3.636-.565-5.044-1.738-1.407-1.173-2.328-2.817-2.586-4.619l-.1-.484-.421.27c-1.884 1.182-4.032 1.888-6.257 2.056l-.135.011-.088.1c-1.378 1.59-3.067 2.887-4.965 3.816-1.898.928-3.966 1.468-6.081 1.586-.242.012-.484.017-.722.017-2.153.141-4.294-.412-6.102-1.578-1.807-1.165-3.182-2.879-3.919-4.883l-.153-.443-.376.285c-2.002 1.459-4.369 2.349-6.845 2.573l-.13.015-.086.1c-1.37 1.617-3.052 2.949-4.948 3.918-1.896.969-3.968 1.556-6.095 1.726-.363.02-.71.04-1.047.04zm4.598-19.957c-.106 0-.208 0-.308.01-3.646.244-7.092 4.733-7.092 9.235-.066.697.034 1.4.29 2.051.256.653.663 1.237 1.187 1.707.688.506 1.527.77 2.384.753.102 0 .204 0 .307-.01.921-.075 1.812-.363 2.599-.842l.284-.168-.17-.285c-.343-.598-.52-1.276-.511-1.964.008-1.138.448-2.232 1.233-3.065.785-.833 1.857-1.345 3.006-1.434.069-.006.138-.009.207-.008l.406.01.042-.298c.06-.375.093-.754.097-1.134 0-4.236-3.026-4.566-3.954-4.566l-.007.008zm29.272-1.654h-.203c-3.65.168-7.101 4.588-7.101 9.088-.068.715.036 1.436.304 2.103.268.667.693 1.262 1.239 1.736.701.498 1.546.76 2.41.75h.207c.92-.049 1.815-.318 2.608-.783l.289-.169-.17-.29c-.339-.605-.511-1.288-.501-1.98.003-1.126.44-2.208 1.224-3.025.784-.817 1.854-1.307 2.991-1.37h.322l.305.01.044-.296c.063-.375.096-.755.1-1.136-.001-4.312-3.11-4.647-4.061-4.647l-.007.009zm29.016-.251h-.102c-3.137.076-6.58 4.75-6.58 8.93 0 2.356 1.166 3.775 3.12 3.775h.109c3.249-.086 6.679-4.645 6.674-8.87 0-2.366-1.235-3.835-3.221-3.835z"/>
    </g>
    <defs>
        <clipPath id="clip0">
            <path fill="#fff" d="M0 0H292V62H0z"/>
        </clipPath>
    </defs>
</svg>
